<?xml version="1.0" encoding="utf-8"?>
<svg xmlns="http://www.w3.org/2000/svg" xmlns:xlink="http://www.w3.org/1999/xlink" style="margin: auto; background: none; display: block; shape-rendering: auto;" width="200px" height="200px" viewBox="0 0 100 100" preserveAspectRatio="xMidYMid">
<g transform="rotate(0 50 50)">
  <rect x="45.5" y="28" rx="4.5" ry="5" width="9" height="10" fill="#000000">
    <animate attributeName="opacity" values="1;0" keyTimes="0;1" dur="0.6097560975609756s" begin="-0.548780487804878s" repeatCount="indefinite"></animate>
  </rect>
</g><g transform="rotate(36 50 50)">
  <rect x="45.5" y="28" rx="4.5" ry="5" width="9" height="10" fill="#000000">
    <animate attributeName="opacity" values="1;0" keyTimes="0;1" dur="0.6097560975609756s" begin="-0.4878048780487804s" repeatCount="indefinite"></animate>
  </rect>
</g><g transform="rotate(72 50 50)">
  <rect x="45.5" y="28" rx="4.5" ry="5" width="9" height="10" fill="#000000">
    <animate attributeName="opacity" values="1;0" keyTimes="0;1" dur="0.6097560975609756s" begin="-0.42682926829268286s" repeatCount="indefinite"></animate>
  </rect>
</g><g transform="rotate(108 50 50)">
  <rect x="45.5" y="28" rx="4.5" ry="5" width="9" height="10" fill="#000000">
    <animate attributeName="opacity" values="1;0" keyTimes="0;1" dur="0.6097560975609756s" begin="-0.3658536585365853s" repeatCount="indefinite"></animate>
  </rect>
</g><g transform="rotate(144 50 50)">
  <rect x="45.5" y="28" rx="4.5" ry="5" width="9" height="10" fill="#000000">
    <animate attributeName="opacity" values="1;0" keyTimes="0;1" dur="0.6097560975609756s" begin="-0.30487804878048774s" repeatCount="indefinite"></animate>
  </rect>
</g><g transform="rotate(180 50 50)">
  <rect x="45.5" y="28" rx="4.5" ry="5" width="9" height="10" fill="#000000">
    <animate attributeName="opacity" values="1;0" keyTimes="0;1" dur="0.6097560975609756s" begin="-0.2439024390243902s" repeatCount="indefinite"></animate>
  </rect>
</g><g transform="rotate(216 50 50)">
  <rect x="45.5" y="28" rx="4.5" ry="5" width="9" height="10" fill="#000000">
    <animate attributeName="opacity" values="1;0" keyTimes="0;1" dur="0.6097560975609756s" begin="-0.18292682926829265s" repeatCount="indefinite"></animate>
  </rect>
</g><g transform="rotate(252 50 50)">
  <rect x="45.5" y="28" rx="4.5" ry="5" width="9" height="10" fill="#000000">
    <animate attributeName="opacity" values="1;0" keyTimes="0;1" dur="0.6097560975609756s" begin="-0.1219512195121951s" repeatCount="indefinite"></animate>
  </rect>
</g><g transform="rotate(288 50 50)">
  <rect x="45.5" y="28" rx="4.5" ry="5" width="9" height="10" fill="#000000">
    <animate attributeName="opacity" values="1;0" keyTimes="0;1" dur="0.6097560975609756s" begin="-0.06097560975609755s" repeatCount="indefinite"></animate>
  </rect>
</g><g transform="rotate(324 50 50)">
  <rect x="45.5" y="28" rx="4.5" ry="5" width="9" height="10" fill="#000000">
    <animate attributeName="opacity" values="1;0" keyTimes="0;1" dur="0.6097560975609756s" begin="0s" repeatCount="indefinite"></animate>
  </rect>
</g>
<!-- [ldio] generated by https://loading.io/ --></svg>